<svg xmlns="http://www.w3.org/2000/svg" xmlns:xlink="http://www.w3.org/1999/xlink" id="Ebene_1" x="0px" y="0px" viewBox="0 0 32 32" style="enable-background:new 0 0 32 32;" xml:space="preserve"><style type="text/css">	.st0{fill:#B0006A;}	.st1{fill:#FFFFFF;}</style><rect x="0" class="st0" width="32" height="32"></rect><g>	<g>		<path class="st1" d="M11.5,13.2c0.4,0,0.8,0.1,1.2,0.2c0.4,0.2,0.8,0.4,1.1,0.7l1.2-1.5c-0.4-0.4-1-0.7-1.6-0.9   c-0.6-0.2-1.2-0.3-1.9-0.3c-0.9,0-1.7,0.2-2.4,0.6c-0.7,0.4-1.3,0.9-1.7,1.5c-0.4,0.7-0.6,1.4-0.6,2.2c0,0.8,0.2,1.5,0.6,2.2   c0.4,0.7,0.9,1.2,1.6,1.5c0.7,0.4,1.5,0.6,2.3,0.6c0.6,0,1.2-0.1,1.9-0.3c0.6-0.2,1.2-0.5,1.7-0.8v-3.3H13v2.2   c-0.5,0.3-1,0.4-1.5,0.4c-0.7,0-1.3-0.2-1.8-0.7c-0.5-0.5-0.7-1.1-0.7-1.8c0-0.7,0.2-1.3,0.7-1.8C10.2,13.4,10.8,13.2,11.5,13.2z"></path>		<path class="st1" d="M22.8,16.4c-0.1-0.3-0.3-0.5-0.4-0.6c-0.2-0.2-0.4-0.3-0.6-0.4c-0.2-0.1-0.5-0.2-0.7-0.3   c-0.2-0.1-0.5-0.1-0.7-0.2c-0.2-0.1-0.5-0.1-0.7-0.2c-0.2-0.1-0.4-0.1-0.6-0.2c-0.2-0.1-0.3-0.2-0.4-0.3c-0.1-0.1-0.2-0.2-0.2-0.4   c0-0.2,0.1-0.4,0.2-0.5c0.2-0.1,0.4-0.2,0.7-0.2c0.3,0,0.8,0.1,1.3,0.2c0.5,0.1,1,0.3,1.4,0.6l0.8-1.7c-0.4-0.3-1-0.5-1.6-0.6   c-0.6-0.1-1.2-0.2-1.8-0.2c-1,0-1.8,0.3-2.4,0.8c-0.6,0.5-0.9,1.1-0.9,1.9c0,0.4,0.1,0.8,0.3,1c0.2,0.3,0.4,0.5,0.7,0.7   c0.3,0.2,0.6,0.3,0.9,0.4c0.3,0.1,0.6,0.2,1,0.3c0.3,0.1,0.6,0.1,0.9,0.2c0.3,0.1,0.5,0.2,0.6,0.3c0.2,0.1,0.3,0.3,0.3,0.5   c0,0.2-0.1,0.4-0.3,0.6c-0.2,0.1-0.5,0.2-0.8,0.2c-0.5,0-1-0.1-1.6-0.3c-0.6-0.2-1.1-0.5-1.5-0.9l-0.8,1.7   c0.5,0.4,1.1,0.7,1.8,0.9c0.7,0.2,1.4,0.3,2.1,0.3c0.5,0,0.9-0.1,1.3-0.2c0.4-0.1,0.8-0.3,1.1-0.5c0.3-0.2,0.5-0.5,0.7-0.8   c0.2-0.3,0.2-0.7,0.2-1.1C23,16.9,22.9,16.7,22.8,16.4z"></path>		<path class="st1" d="M30.7,17.3c0-0.3-0.1-0.6-0.2-0.9c-0.1-0.3-0.3-0.5-0.4-0.6c-0.2-0.2-0.4-0.3-0.6-0.4   c-0.2-0.1-0.5-0.2-0.7-0.3c-0.2-0.1-0.5-0.1-0.7-0.2c-0.2-0.1-0.5-0.1-0.7-0.2c-0.2-0.1-0.4-0.1-0.6-0.2c-0.2-0.1-0.3-0.2-0.4-0.3   c-0.1-0.1-0.2-0.2-0.2-0.4c0-0.2,0.1-0.4,0.2-0.5c0.2-0.1,0.4-0.2,0.7-0.2c0.3,0,0.8,0.1,1.3,0.2c0.5,0.1,1,0.3,1.4,0.6l0.8-1.7   c-0.4-0.3-1-0.5-1.6-0.6c-0.6-0.1-1.2-0.2-1.8-0.2c-1,0-1.8,0.3-2.4,0.8c-0.6,0.5-0.9,1.1-0.9,1.9c0,0.4,0.1,0.8,0.3,1   c0.2,0.3,0.4,0.5,0.7,0.7c0.3,0.2,0.6,0.3,0.9,0.4c0.3,0.1,0.6,0.2,1,0.3c0.3,0.1,0.6,0.1,0.9,0.2c0.3,0.1,0.5,0.2,0.6,0.3   c0.2,0.1,0.3,0.3,0.3,0.5c0,0.2-0.1,0.4-0.3,0.6c-0.2,0.1-0.5,0.2-0.8,0.2c-0.5,0-1-0.1-1.6-0.3c-0.6-0.2-1.1-0.5-1.5-0.9   l-0.8,1.7c0.5,0.4,1.1,0.7,1.8,0.9c0.7,0.2,1.4,0.3,2.1,0.3c0.5,0,0.9-0.1,1.3-0.2c0.4-0.1,0.8-0.3,1.1-0.5   c0.3-0.2,0.5-0.5,0.7-0.8C30.7,18.1,30.8,17.7,30.7,17.3z"></path>	</g>	<g>		<path class="st1" d="M8.1,22.2c-1.2-0.6-2.2-1.5-3-2.6C4.4,18.5,4,17.1,4,15.7c0-1.4,0.4-2.8,1.2-4l1.5,1c-0.6,0.9-0.9,1.9-0.9,3   c0,2.1,1.2,4,3.1,4.9L8.1,22.2z"></path>	</g>	<g>		<g>			<path class="st1" d="M1.8,19.2c-0.4-1.1-0.6-2.3-0.6-3.4c0-2.2,0.7-4.3,2-6c1.3-1.7,3.1-3,5.1-3.6l0.5,1.7    c-1.6,0.5-3.1,1.6-4.2,2.9C3.5,12.2,3,13.9,3,15.7c0,1,0.2,1.9,0.5,2.8L1.8,19.2z"></path>		</g>	</g></g></svg>